<svg width="99" height="19" viewBox="0 0 99 19" fill="none" xmlns="http://www.w3.org/2000/svg">
<path d="M8.1 4.8C8.03333 4.28 7.89333 3.85333 7.68 3.52C7.44 3.16 7.14 2.9 6.78 2.74C6.43333 2.56667 5.98667 2.48 5.44 2.48C4.53333 2.48 3.9 2.67333 3.54 3.06C3.19333 3.40667 3.02 3.90667 3.02 4.56C3.02 4.93333 3.07333 5.24 3.18 5.48C3.28667 5.70667 3.44667 5.89333 3.66 6.04C3.98 6.26667 4.50667 6.41333 5.24 6.48C5.98667 6.54667 6.61333 6.65333 7.12 6.8C7.64 6.93333 8.09333 7.12 8.48 7.36C9.45333 7.97333 9.94 8.93333 9.94 10.24C9.94 10.7467 9.84 11.2267 9.64 11.68C9.44 12.1333 9.16 12.54 8.8 12.9C8.37333 13.3133 7.86667 13.62 7.28 13.82C6.70667 14.02 6.10667 14.12 5.48 14.12C4.06667 14.12 2.94 13.72 2.1 12.92C1.38 12.2 0.946667 11.24 0.8 10.04L0.84 10.02H2.6C2.70667 10.7267 2.94667 11.2533 3.32 11.6C3.84 12.08 4.54 12.32 5.42 12.32C6.26 12.32 6.92667 12.1267 7.42 11.74C7.91333 11.3533 8.16 10.8533 8.16 10.24C8.16 9.96 8.12 9.72 8.04 9.52C7.97333 9.30667 7.84 9.12 7.64 8.96C7.18667 8.61333 6.34 8.39333 5.1 8.3C3.83333 8.19333 2.87333 7.82667 2.22 7.2C1.56667 6.57333 1.24 5.69333 1.24 4.56C1.24 3.41333 1.59333 2.48667 2.3 1.78C3.04667 1.03333 4.08667 0.659999 5.42 0.659999C6.80667 0.659999 7.88667 1.08 8.66 1.92C9.34 2.65333 9.75333 3.61333 9.9 4.8H8.1ZM14.7422 5.8V14H13.0422V5.8H11.5422V4H13.0422V0.7H14.7422V4H16.2422V5.8H14.7422ZM22.3053 14.1C21.6253 14.1 20.9786 13.9667 20.3653 13.7C19.752 13.4333 19.212 13.0667 18.7453 12.6C18.2786 12.1333 17.912 11.5933 17.6453 10.98C17.3786 10.3667 17.2453 9.72 17.2453 9.04C17.2453 8.34667 17.3786 7.68667 17.6453 7.06C17.912 6.43333 18.2786 5.88667 18.7453 5.42C19.212 4.95333 19.752 4.59333 20.3653 4.34C20.9786 4.07333 21.6253 3.94 22.3053 3.94C22.9986 3.94 23.6586 4.07333 24.2853 4.34C24.912 4.59333 25.4586 4.95333 25.9253 5.42C26.392 5.88667 26.752 6.43333 27.0053 7.06C27.272 7.68667 27.4053 8.34667 27.4053 9.04C27.4053 9.72 27.272 10.3667 27.0053 10.98C26.752 11.5933 26.392 12.1333 25.9253 12.6C25.4586 13.0667 24.912 13.4333 24.2853 13.7C23.6586 13.9667 22.9986 14.1 22.3053 14.1ZM22.3053 5.72C21.412 5.72 20.6453 6.04 20.0053 6.68C19.6986 6.98667 19.4586 7.34667 19.2853 7.76C19.112 8.17333 19.0253 8.6 19.0253 9.04C19.0253 9.48 19.112 9.9 19.2853 10.3C19.4586 10.7 19.6986 11.0533 20.0053 11.36C20.312 11.6667 20.6586 11.9067 21.0453 12.08C21.4453 12.2533 21.8653 12.34 22.3053 12.34C22.7453 12.34 23.172 12.2533 23.5853 12.08C23.9986 11.9067 24.352 11.6667 24.6453 11.36C24.9386 11.0533 25.172 10.7 25.3453 10.3C25.5186 9.9 25.6053 9.48 25.6053 9.04C25.6053 8.6 25.5186 8.17333 25.3453 7.76C25.172 7.34667 24.9386 6.98667 24.6453 6.68C24.352 6.37333 23.9986 6.14 23.5853 5.98C23.1853 5.80667 22.7586 5.72 22.3053 5.72ZM35.3831 14V8C35.3831 7.4 35.1631 6.88 34.7231 6.44C34.2965 6.01333 33.7765 5.8 33.1631 5.8C32.5631 5.8 32.0431 6.02 31.6031 6.46C31.4031 6.66 31.2431 6.9 31.1231 7.18C31.0031 7.44667 30.9431 7.72 30.9431 8V14H29.2031V4.24H30.9431V5.06C31.1965 4.75333 31.5298 4.5 31.9431 4.3C32.3565 4.1 32.7631 4 33.1631 4C33.6965 4 34.2031 4.10667 34.6831 4.32C35.1765 4.52 35.6098 4.80667 35.9831 5.18C36.3431 5.54 36.6231 5.96667 36.8231 6.46C37.0365 6.94 37.1431 7.45333 37.1431 8V14H35.3831ZM40.6692 9.76C40.6692 10.08 40.7826 10.4133 41.0092 10.76C41.2492 11.1067 41.5226 11.4 41.8292 11.64C42.3892 12.08 43.0426 12.3 43.7892 12.3C44.9759 12.3 45.9426 11.7267 46.6892 10.58L48.2092 11.48C47.6892 12.32 47.0492 12.9667 46.2892 13.42C45.5292 13.8733 44.6959 14.1 43.7892 14.1C43.1092 14.1 42.4626 13.9733 41.8492 13.72C41.2359 13.4533 40.6959 13.0867 40.2292 12.62C39.7626 12.1533 39.3959 11.6133 39.1292 11C38.8759 10.3867 38.7492 9.74 38.7492 9.06C38.7492 8.38 38.8759 7.73333 39.1292 7.12C39.3959 6.49333 39.7626 5.94667 40.2292 5.48C40.6826 5.01333 41.2159 4.65333 41.8292 4.4C42.4559 4.14667 43.1092 4.02 43.7892 4.02C44.4692 4.02 45.1159 4.14667 45.7292 4.4C46.3559 4.65333 46.8959 5.01333 47.3492 5.48C48.3359 6.49333 48.8292 7.66667 48.8292 9C48.8292 9.24 48.8092 9.49333 48.7692 9.76H40.6692ZM43.7892 5.66C43.2426 5.66 42.7292 5.78 42.2492 6.02C41.7692 6.26 41.3826 6.58 41.0892 6.98C40.8092 7.36667 40.6692 7.78 40.6692 8.22H46.9092C46.9092 7.78 46.7626 7.36667 46.4692 6.98C46.1892 6.58 45.8092 6.26 45.3292 6.02C44.8492 5.78 44.3359 5.66 43.7892 5.66ZM50.3034 14C50.0501 14 49.8368 13.92 49.6634 13.76C49.5034 13.5867 49.4234 13.3733 49.4234 13.12C49.4234 12.88 49.5034 12.6733 49.6634 12.5C49.8368 12.3267 50.0501 12.24 50.3034 12.24C50.5434 12.24 50.7501 12.3267 50.9234 12.5C51.0968 12.6733 51.1834 12.88 51.1834 13.12C51.1834 13.3733 51.0968 13.5867 50.9234 13.76C50.7501 13.92 50.5434 14 50.3034 14ZM58.2475 14.18C57.4875 14.18 56.8542 14.06 56.3475 13.82C55.8408 13.5667 55.3808 13.1733 54.9675 12.64V18.26H53.1875V4.24H54.9675V5.64C55.3808 5.13333 55.8742 4.72667 56.4475 4.42C57.0208 4.11333 57.6208 3.96 58.2475 3.96C58.9275 3.96 59.5742 4.09333 60.1875 4.36C60.8142 4.61333 61.3542 4.98 61.8075 5.46C62.2742 5.94 62.6342 6.49333 62.8875 7.12C63.1542 7.73333 63.2875 8.38667 63.2875 9.08C63.2875 9.77333 63.1542 10.4267 62.8875 11.04C62.6342 11.6533 62.2742 12.2 61.8075 12.68C61.3542 13.1467 60.8142 13.5133 60.1875 13.78C59.5742 14.0467 58.9275 14.18 58.2475 14.18ZM58.2475 5.78C57.8075 5.78 57.3875 5.86667 56.9875 6.04C56.5875 6.2 56.2408 6.43333 55.9475 6.74C55.6542 7.04667 55.4208 7.40667 55.2475 7.82C55.0742 8.22 54.9875 8.64 54.9875 9.08C54.9875 9.52 55.0742 9.94 55.2475 10.34C55.4208 10.74 55.6542 11.0933 55.9475 11.4C56.2408 11.7067 56.5875 11.9467 56.9875 12.12C57.3875 12.2933 57.8075 12.38 58.2475 12.38C58.6875 12.38 59.1075 12.2933 59.5075 12.12C59.9075 11.9467 60.2542 11.7067 60.5475 11.4C60.8408 11.0933 61.0675 10.74 61.2275 10.34C61.4008 9.94 61.4875 9.52 61.4875 9.08C61.4875 8.64 61.4008 8.22 61.2275 7.82C61.0675 7.40667 60.8408 7.04667 60.5475 6.74C60.2542 6.43333 59.9075 6.2 59.5075 6.04C59.1075 5.86667 58.6875 5.78 58.2475 5.78ZM69.542 5.92C69.222 5.77333 68.9354 5.7 68.682 5.7C68.1487 5.7 67.7087 5.88667 67.362 6.26C66.9887 6.66 66.802 7.12 66.802 7.64V14H65.082V7.64C65.082 6.92 65.262 6.26 65.622 5.66C65.9954 5.06 66.502 4.59333 67.142 4.26C67.622 4.03333 68.1354 3.92 68.682 3.92C69.122 3.92 69.542 4 69.942 4.16C70.342 4.32 70.762 4.58 71.202 4.94L69.542 5.92ZM76.0748 14.1C75.3948 14.1 74.7482 13.9667 74.1348 13.7C73.5215 13.4333 72.9815 13.0667 72.5148 12.6C72.0482 12.1333 71.6815 11.5933 71.4148 10.98C71.1482 10.3667 71.0148 9.72 71.0148 9.04C71.0148 8.34667 71.1482 7.68667 71.4148 7.06C71.6815 6.43333 72.0482 5.88667 72.5148 5.42C72.9815 4.95333 73.5215 4.59333 74.1348 4.34C74.7482 4.07333 75.3948 3.94 76.0748 3.94C76.7682 3.94 77.4282 4.07333 78.0548 4.34C78.6815 4.59333 79.2282 4.95333 79.6948 5.42C80.1615 5.88667 80.5215 6.43333 80.7748 7.06C81.0415 7.68667 81.1748 8.34667 81.1748 9.04C81.1748 9.72 81.0415 10.3667 80.7748 10.98C80.5215 11.5933 80.1615 12.1333 79.6948 12.6C79.2282 13.0667 78.6815 13.4333 78.0548 13.7C77.4282 13.9667 76.7682 14.1 76.0748 14.1ZM76.0748 5.72C75.1815 5.72 74.4148 6.04 73.7748 6.68C73.4682 6.98667 73.2282 7.34667 73.0548 7.76C72.8815 8.17333 72.7948 8.6 72.7948 9.04C72.7948 9.48 72.8815 9.9 73.0548 10.3C73.2282 10.7 73.4682 11.0533 73.7748 11.36C74.0815 11.6667 74.4282 11.9067 74.8148 12.08C75.2148 12.2533 75.6348 12.34 76.0748 12.34C76.5148 12.34 76.9415 12.2533 77.3548 12.08C77.7682 11.9067 78.1215 11.6667 78.4148 11.36C78.7082 11.0533 78.9415 10.7 79.1148 10.3C79.2882 9.9 79.3748 9.48 79.3748 9.04C79.3748 8.6 79.2882 8.17333 79.1148 7.76C78.9415 7.34667 78.7082 6.98667 78.4148 6.68C78.1215 6.37333 77.7682 6.14 77.3548 5.98C76.9548 5.80667 76.5282 5.72 76.0748 5.72ZM87.442 14.1C86.762 14.1 86.1154 13.9667 85.502 13.7C84.8887 13.4333 84.3487 13.0667 83.882 12.6C83.4154 12.1333 83.0487 11.5933 82.782 10.98C82.5154 10.3667 82.382 9.72 82.382 9.04C82.382 8.34667 82.5154 7.68667 82.782 7.06C83.0487 6.43333 83.4154 5.88667 83.882 5.42C84.3487 4.95333 84.8887 4.59333 85.502 4.34C86.1154 4.07333 86.762 3.94 87.442 3.94C88.1354 3.94 88.7954 4.07333 89.422 4.34C90.0487 4.59333 90.5954 4.95333 91.062 5.42C91.5287 5.88667 91.8887 6.43333 92.142 7.06C92.4087 7.68667 92.542 8.34667 92.542 9.04C92.542 9.72 92.4087 10.3667 92.142 10.98C91.8887 11.5933 91.5287 12.1333 91.062 12.6C90.5954 13.0667 90.0487 13.4333 89.422 13.7C88.7954 13.9667 88.1354 14.1 87.442 14.1ZM87.442 5.72C86.5487 5.72 85.782 6.04 85.142 6.68C84.8354 6.98667 84.5954 7.34667 84.422 7.76C84.2487 8.17333 84.162 8.6 84.162 9.04C84.162 9.48 84.2487 9.9 84.422 10.3C84.5954 10.7 84.8354 11.0533 85.142 11.36C85.4487 11.6667 85.7954 11.9067 86.182 12.08C86.582 12.2533 87.002 12.34 87.442 12.34C87.882 12.34 88.3087 12.2533 88.722 12.08C89.1354 11.9067 89.4887 11.6667 89.782 11.36C90.0754 11.0533 90.3087 10.7 90.482 10.3C90.6554 9.9 90.742 9.48 90.742 9.04C90.742 8.6 90.6554 8.17333 90.482 7.76C90.3087 7.34667 90.0754 6.98667 89.782 6.68C89.4887 6.37333 89.1354 6.14 88.722 5.98C88.322 5.80667 87.8954 5.72 87.442 5.72ZM96.3544 5.68V14H94.6744V5.68H93.7344V4H94.6944C94.721 3.36 94.901 2.78667 95.2344 2.28C95.581 1.77333 96.0344 1.38 96.5944 1.1C97.1544 0.82 97.7677 0.68 98.4344 0.68V2.4C97.8744 2.37333 97.401 2.51333 97.0144 2.82C96.641 3.12667 96.441 3.52 96.4144 4H98.4344V5.68H96.3544Z" fill="#1E3A8A"/>
</svg>
