<svg width="136" height="28" viewBox="0 0 136 28" fill="none" xmlns="http://www.w3.org/2000/svg">
<path d="M45.1 10.8C45.0333 10.28 44.8933 9.85333 44.68 9.52C44.44 9.16 44.14 8.9 43.78 8.74C43.4333 8.56667 42.9867 8.48 42.44 8.48C41.5333 8.48 40.9 8.67333 40.54 9.06C40.1933 9.40667 40.02 9.90667 40.02 10.56C40.02 10.9333 40.0733 11.24 40.18 11.48C40.2867 11.7067 40.4467 11.8933 40.66 12.04C40.98 12.2667 41.5067 12.4133 42.24 12.48C42.9867 12.5467 43.6133 12.6533 44.12 12.8C44.64 12.9333 45.0933 13.12 45.48 13.36C46.4533 13.9733 46.94 14.9333 46.94 16.24C46.94 16.7467 46.84 17.2267 46.64 17.68C46.44 18.1333 46.16 18.54 45.8 18.9C45.3733 19.3133 44.8667 19.62 44.28 19.82C43.7067 20.02 43.1067 20.12 42.48 20.12C41.0667 20.12 39.94 19.72 39.1 18.92C38.38 18.2 37.9467 17.24 37.8 16.04L37.84 16.02H39.6C39.7067 16.7267 39.9467 17.2533 40.32 17.6C40.84 18.08 41.54 18.32 42.42 18.32C43.26 18.32 43.9267 18.1267 44.42 17.74C44.9133 17.3533 45.16 16.8533 45.16 16.24C45.16 15.96 45.12 15.72 45.04 15.52C44.9733 15.3067 44.84 15.12 44.64 14.96C44.1867 14.6133 43.34 14.3933 42.1 14.3C40.8333 14.1933 39.8733 13.8267 39.22 13.2C38.5667 12.5733 38.24 11.6933 38.24 10.56C38.24 9.41333 38.5933 8.48667 39.3 7.78C40.0467 7.03333 41.0867 6.66 42.42 6.66C43.8067 6.66 44.8867 7.08 45.66 7.92C46.34 8.65333 46.7533 9.61333 46.9 10.8H45.1ZM51.7422 11.8V20H50.0422V11.8H48.5422V10H50.0422V6.7H51.7422V10H53.2422V11.8H51.7422ZM59.3053 20.1C58.6253 20.1 57.9786 19.9667 57.3653 19.7C56.752 19.4333 56.212 19.0667 55.7453 18.6C55.2786 18.1333 54.912 17.5933 54.6453 16.98C54.3786 16.3667 54.2453 15.72 54.2453 15.04C54.2453 14.3467 54.3786 13.6867 54.6453 13.06C54.912 12.4333 55.2786 11.8867 55.7453 11.42C56.212 10.9533 56.752 10.5933 57.3653 10.34C57.9786 10.0733 58.6253 9.94 59.3053 9.94C59.9986 9.94 60.6586 10.0733 61.2853 10.34C61.912 10.5933 62.4586 10.9533 62.9253 11.42C63.392 11.8867 63.752 12.4333 64.0053 13.06C64.272 13.6867 64.4053 14.3467 64.4053 15.04C64.4053 15.72 64.272 16.3667 64.0053 16.98C63.752 17.5933 63.392 18.1333 62.9253 18.6C62.4586 19.0667 61.912 19.4333 61.2853 19.7C60.6586 19.9667 59.9986 20.1 59.3053 20.1ZM59.3053 11.72C58.412 11.72 57.6453 12.04 57.0053 12.68C56.6986 12.9867 56.4586 13.3467 56.2853 13.76C56.112 14.1733 56.0253 14.6 56.0253 15.04C56.0253 15.48 56.112 15.9 56.2853 16.3C56.4586 16.7 56.6986 17.0533 57.0053 17.36C57.312 17.6667 57.6586 17.9067 58.0453 18.08C58.4453 18.2533 58.8653 18.34 59.3053 18.34C59.7453 18.34 60.172 18.2533 60.5853 18.08C60.9986 17.9067 61.352 17.6667 61.6453 17.36C61.9386 17.0533 62.172 16.7 62.3453 16.3C62.5186 15.9 62.6053 15.48 62.6053 15.04C62.6053 14.6 62.5186 14.1733 62.3453 13.76C62.172 13.3467 61.9386 12.9867 61.6453 12.68C61.352 12.3733 60.9986 12.14 60.5853 11.98C60.1853 11.8067 59.7586 11.72 59.3053 11.72ZM72.3831 20V14C72.3831 13.4 72.1631 12.88 71.7231 12.44C71.2965 12.0133 70.7765 11.8 70.1631 11.8C69.5631 11.8 69.0431 12.02 68.6031 12.46C68.4031 12.66 68.2431 12.9 68.1231 13.18C68.0031 13.4467 67.9431 13.72 67.9431 14V20H66.2031V10.24H67.9431V11.06C68.1965 10.7533 68.5298 10.5 68.9431 10.3C69.3565 10.1 69.7631 10 70.1631 10C70.6965 10 71.2031 10.1067 71.6831 10.32C72.1765 10.52 72.6098 10.8067 72.9831 11.18C73.3431 11.54 73.6231 11.9667 73.8231 12.46C74.0365 12.94 74.1431 13.4533 74.1431 14V20H72.3831ZM77.6692 15.76C77.6692 16.08 77.7826 16.4133 78.0092 16.76C78.2492 17.1067 78.5226 17.4 78.8292 17.64C79.3892 18.08 80.0426 18.3 80.7892 18.3C81.9759 18.3 82.9426 17.7267 83.6892 16.58L85.2092 17.48C84.6892 18.32 84.0492 18.9667 83.2892 19.42C82.5292 19.8733 81.6959 20.1 80.7892 20.1C80.1092 20.1 79.4626 19.9733 78.8492 19.72C78.2359 19.4533 77.6959 19.0867 77.2292 18.62C76.7626 18.1533 76.3959 17.6133 76.1292 17C75.8759 16.3867 75.7492 15.74 75.7492 15.06C75.7492 14.38 75.8759 13.7333 76.1292 13.12C76.3959 12.4933 76.7626 11.9467 77.2292 11.48C77.6826 11.0133 78.2159 10.6533 78.8292 10.4C79.4559 10.1467 80.1092 10.02 80.7892 10.02C81.4692 10.02 82.1159 10.1467 82.7292 10.4C83.3559 10.6533 83.8959 11.0133 84.3492 11.48C85.3359 12.4933 85.8292 13.6667 85.8292 15C85.8292 15.24 85.8092 15.4933 85.7692 15.76H77.6692ZM80.7892 11.66C80.2426 11.66 79.7292 11.78 79.2492 12.02C78.7692 12.26 78.3826 12.58 78.0892 12.98C77.8092 13.3667 77.6692 13.78 77.6692 14.22H83.9092C83.9092 13.78 83.7626 13.3667 83.4692 12.98C83.1892 12.58 82.8092 12.26 82.3292 12.02C81.8492 11.78 81.3359 11.66 80.7892 11.66ZM87.3034 20C87.0501 20 86.8368 19.92 86.6634 19.76C86.5034 19.5867 86.4234 19.3733 86.4234 19.12C86.4234 18.88 86.5034 18.6733 86.6634 18.5C86.8368 18.3267 87.0501 18.24 87.3034 18.24C87.5434 18.24 87.7501 18.3267 87.9234 18.5C88.0968 18.6733 88.1834 18.88 88.1834 19.12C88.1834 19.3733 88.0968 19.5867 87.9234 19.76C87.7501 19.92 87.5434 20 87.3034 20ZM95.2475 20.18C94.4875 20.18 93.8542 20.06 93.3475 19.82C92.8408 19.5667 92.3808 19.1733 91.9675 18.64V24.26H90.1875V10.24H91.9675V11.64C92.3808 11.1333 92.8742 10.7267 93.4475 10.42C94.0208 10.1133 94.6208 9.96 95.2475 9.96C95.9275 9.96 96.5742 10.0933 97.1875 10.36C97.8142 10.6133 98.3542 10.98 98.8075 11.46C99.2742 11.94 99.6342 12.4933 99.8875 13.12C100.154 13.7333 100.288 14.3867 100.288 15.08C100.288 15.7733 100.154 16.4267 99.8875 17.04C99.6342 17.6533 99.2742 18.2 98.8075 18.68C98.3542 19.1467 97.8142 19.5133 97.1875 19.78C96.5742 20.0467 95.9275 20.18 95.2475 20.18ZM95.2475 11.78C94.8075 11.78 94.3875 11.8667 93.9875 12.04C93.5875 12.2 93.2408 12.4333 92.9475 12.74C92.6542 13.0467 92.4208 13.4067 92.2475 13.82C92.0742 14.22 91.9875 14.64 91.9875 15.08C91.9875 15.52 92.0742 15.94 92.2475 16.34C92.4208 16.74 92.6542 17.0933 92.9475 17.4C93.2408 17.7067 93.5875 17.9467 93.9875 18.12C94.3875 18.2933 94.8075 18.38 95.2475 18.38C95.6875 18.38 96.1075 18.2933 96.5075 18.12C96.9075 17.9467 97.2542 17.7067 97.5475 17.4C97.8408 17.0933 98.0675 16.74 98.2275 16.34C98.4008 15.94 98.4875 15.52 98.4875 15.08C98.4875 14.64 98.4008 14.22 98.2275 13.82C98.0675 13.4067 97.8408 13.0467 97.5475 12.74C97.2542 12.4333 96.9075 12.2 96.5075 12.04C96.1075 11.8667 95.6875 11.78 95.2475 11.78ZM106.542 11.92C106.222 11.7733 105.935 11.7 105.682 11.7C105.149 11.7 104.709 11.8867 104.362 12.26C103.989 12.66 103.802 13.12 103.802 13.64V20H102.082V13.64C102.082 12.92 102.262 12.26 102.622 11.66C102.995 11.06 103.502 10.5933 104.142 10.26C104.622 10.0333 105.135 9.92 105.682 9.92C106.122 9.92 106.542 10 106.942 10.16C107.342 10.32 107.762 10.58 108.202 10.94L106.542 11.92ZM113.075 20.1C112.395 20.1 111.748 19.9667 111.135 19.7C110.522 19.4333 109.982 19.0667 109.515 18.6C109.048 18.1333 108.682 17.5933 108.415 16.98C108.148 16.3667 108.015 15.72 108.015 15.04C108.015 14.3467 108.148 13.6867 108.415 13.06C108.682 12.4333 109.048 11.8867 109.515 11.42C109.982 10.9533 110.522 10.5933 111.135 10.34C111.748 10.0733 112.395 9.94 113.075 9.94C113.768 9.94 114.428 10.0733 115.055 10.34C115.682 10.5933 116.228 10.9533 116.695 11.42C117.162 11.8867 117.522 12.4333 117.775 13.06C118.042 13.6867 118.175 14.3467 118.175 15.04C118.175 15.72 118.042 16.3667 117.775 16.98C117.522 17.5933 117.162 18.1333 116.695 18.6C116.228 19.0667 115.682 19.4333 115.055 19.7C114.428 19.9667 113.768 20.1 113.075 20.1ZM113.075 11.72C112.182 11.72 111.415 12.04 110.775 12.68C110.468 12.9867 110.228 13.3467 110.055 13.76C109.882 14.1733 109.795 14.6 109.795 15.04C109.795 15.48 109.882 15.9 110.055 16.3C110.228 16.7 110.468 17.0533 110.775 17.36C111.082 17.6667 111.428 17.9067 111.815 18.08C112.215 18.2533 112.635 18.34 113.075 18.34C113.515 18.34 113.942 18.2533 114.355 18.08C114.768 17.9067 115.122 17.6667 115.415 17.36C115.708 17.0533 115.942 16.7 116.115 16.3C116.288 15.9 116.375 15.48 116.375 15.04C116.375 14.6 116.288 14.1733 116.115 13.76C115.942 13.3467 115.708 12.9867 115.415 12.68C115.122 12.3733 114.768 12.14 114.355 11.98C113.955 11.8067 113.528 11.72 113.075 11.72ZM124.442 20.1C123.762 20.1 123.115 19.9667 122.502 19.7C121.889 19.4333 121.349 19.0667 120.882 18.6C120.415 18.1333 120.049 17.5933 119.782 16.98C119.515 16.3667 119.382 15.72 119.382 15.04C119.382 14.3467 119.515 13.6867 119.782 13.06C120.049 12.4333 120.415 11.8867 120.882 11.42C121.349 10.9533 121.889 10.5933 122.502 10.34C123.115 10.0733 123.762 9.94 124.442 9.94C125.135 9.94 125.795 10.0733 126.422 10.34C127.049 10.5933 127.595 10.9533 128.062 11.42C128.529 11.8867 128.889 12.4333 129.142 13.06C129.409 13.6867 129.542 14.3467 129.542 15.04C129.542 15.72 129.409 16.3667 129.142 16.98C128.889 17.5933 128.529 18.1333 128.062 18.6C127.595 19.0667 127.049 19.4333 126.422 19.7C125.795 19.9667 125.135 20.1 124.442 20.1ZM124.442 11.72C123.549 11.72 122.782 12.04 122.142 12.68C121.835 12.9867 121.595 13.3467 121.422 13.76C121.249 14.1733 121.162 14.6 121.162 15.04C121.162 15.48 121.249 15.9 121.422 16.3C121.595 16.7 121.835 17.0533 122.142 17.36C122.449 17.6667 122.795 17.9067 123.182 18.08C123.582 18.2533 124.002 18.34 124.442 18.34C124.882 18.34 125.309 18.2533 125.722 18.08C126.135 17.9067 126.489 17.6667 126.782 17.36C127.075 17.0533 127.309 16.7 127.482 16.3C127.655 15.9 127.742 15.48 127.742 15.04C127.742 14.6 127.655 14.1733 127.482 13.76C127.309 13.3467 127.075 12.9867 126.782 12.68C126.489 12.3733 126.135 12.14 125.722 11.98C125.322 11.8067 124.895 11.72 124.442 11.72ZM133.354 11.68V20H131.674V11.68H130.734V10H131.694C131.721 9.36 131.901 8.78667 132.234 8.28C132.581 7.77333 133.034 7.38 133.594 7.1C134.154 6.82 134.768 6.68 135.434 6.68V8.4C134.874 8.37333 134.401 8.51333 134.014 8.82C133.641 9.12667 133.441 9.52 133.414 10H135.434V11.68H133.354Z" fill="#1E3A8A"/>
<path fill-rule="evenodd" clip-rule="evenodd" d="M1.39999 7.01402C1.39999 6.34902 1.74999 5.73302 2.33099 5.40402L11.256 0.252024C11.5391 0.0885996 11.8601 0.00256348 12.187 0.00256348C12.5138 0.00256348 12.8349 0.0885996 13.118 0.252024L22.043 5.40402C22.3257 5.56723 22.5605 5.80189 22.7239 6.08446C22.8873 6.36704 22.9735 6.68761 22.974 7.01402V11.214L19.474 9.19102C19.1909 9.0276 18.8698 8.94156 18.543 8.94156C18.2161 8.94156 17.8951 9.0276 17.612 9.19102L10.955 13.027C10.671 13.1893 10.4348 13.4236 10.2701 13.7063C10.1055 13.9889 10.0181 14.3099 10.017 14.637V22.302C10.017 22.932 10.332 23.506 10.85 23.849L2.33099 18.935C2.04831 18.7718 1.81349 18.5372 1.65009 18.2546C1.48669 17.972 1.40044 17.6514 1.39999 17.325V7.01402Z" fill="url(#paint0_linear_0_1)"/>
<path fill-rule="evenodd" clip-rule="evenodd" d="M10.85 23.849L11.256 24.087C11.83 24.423 12.544 24.423 13.118 24.087L22.043 18.935C22.3257 18.7718 22.5605 18.5371 22.7239 18.2546C22.8873 17.972 22.9736 17.6514 22.974 17.325V11.221L26.103 13.027C26.3857 13.1902 26.6205 13.4249 26.7839 13.7074C26.9473 13.99 27.0336 14.3106 27.034 14.637V22.302C27.034 22.967 26.684 23.583 26.103 23.912L19.467 27.748C18.893 28.084 18.186 28.084 17.612 27.748L10.955 23.919L10.85 23.849Z" fill="#FF7B31"/>
<path fill-rule="evenodd" clip-rule="evenodd" d="M22.974 11.221L19.474 9.19099C19.1909 9.02756 18.8698 8.94153 18.543 8.94153C18.2161 8.94153 17.8951 9.02756 17.612 9.19099L10.955 13.027C10.671 13.1893 10.4348 13.4236 10.2701 13.7062C10.1055 13.9889 10.0182 14.3099 10.017 14.637V22.302C10.017 22.932 10.332 23.506 10.85 23.849L11.256 24.087C11.83 24.423 12.544 24.423 13.118 24.087L22.043 18.935C22.3257 18.7718 22.5605 18.5371 22.7239 18.2545C22.8873 17.972 22.9736 17.6514 22.974 17.325V11.221Z" fill="url(#paint1_linear_0_1)"/>
<defs>
<linearGradient id="paint0_linear_0_1" x1="12.187" y1="1.56802" x2="11.9" y2="22.526" gradientUnits="userSpaceOnUse">
<stop stop-color="#11EFE3"/>
<stop offset="0.33" stop-color="#15E8E2"/>
<stop offset="0.74" stop-color="#1FD3E0"/>
<stop offset="1" stop-color="#21CFE0"/>
</linearGradient>
<linearGradient id="paint1_linear_0_1" x1="15.365" y1="28.567" x2="21.413" y2="6.69199" gradientUnits="userSpaceOnUse">
<stop stop-color="#0048E5"/>
<stop offset="0.64" stop-color="#625AF5"/>
<stop offset="1" stop-color="#8A62FC"/>
</linearGradient>
</defs>
</svg>
